<svg xmlns="http://www.w3.org/2000/svg" viewBox="0 0 200 200" aria-label="Tangent mark">
  <g transform="matrix(1.6554165,0,0,1.6554165,-91.126842,-54.651218)">
    <path
      fill="#000"
      d="m 99.861088,43.908948 a 51,51 0 0 0 -33.19539,12.282454 51,51 0 0 1 17.619597,-3.140377 51,51 0 0 1 50.999985,50.999985 51,51 0 0 1 -17.8046,38.71805 51,51 0 0 0 33.3804,-47.860124 51,51 0 0 0 -50.999992,-50.999988 z" />
    <path
      fill="#000"
      d="m 171.1588,17.405969 -1.9e-4,84.384621 4.69157,-1.2571 3e-5,-83.127344 z"
      transform="rotate(15)" />
  </g>
</svg>
