<?xml version="1.0" encoding="UTF-8" standalone="no"?>
<svg
   viewBox="0 0 200 200"
   role="img"
   aria-label="Tangent"
   version="1.1"
   id="svg2"
   sodipodi:docname="logo.svg"
   xml:space="preserve"
   inkscape:export-filename="embed-image.png"
   inkscape:export-xdpi="640"
   inkscape:export-ydpi="640"
   inkscape:version="1.4.3 (0d15f75, 2025-12-25)"
   xmlns:inkscape="http://www.inkscape.org/namespaces/inkscape"
   xmlns:sodipodi="http://sodipodi.sourceforge.net/DTD/sodipodi-0.dtd"
   xmlns="http://www.w3.org/2000/svg"
   xmlns:svg="http://www.w3.org/2000/svg"><defs
     id="defs2" /><sodipodi:namedview
     id="namedview2"
     pagecolor="#ffffff"
     bordercolor="#000000"
     borderopacity="0.25"
     inkscape:showpageshadow="2"
     inkscape:pageopacity="0.0"
     inkscape:pagecheckerboard="0"
     inkscape:deskcolor="#d1d1d1"
     inkscape:zoom="2.3322821"
     inkscape:cx="87.467978"
     inkscape:cy="116.83835"
     inkscape:window-width="1327"
     inkscape:window-height="694"
     inkscape:window-x="25"
     inkscape:window-y="75"
     inkscape:window-maximized="0"
     inkscape:current-layer="svg2" /><rect
     style="fill:#101a30;fill-opacity:1;stroke-width:9.33543"
     id="rect2"
     width="180"
     height="180"
     x="12.121769"
     y="12.508393" /><g
     transform="matrix(1.1137397,0,0,1.1137397,-5.6856603,-2.2207547)"
     id="g2"><path
       fill="#cfd5e4"
       d="m 77.223,95.157 a 37.801,37.801 0 0 0 -24.604,9.104 37.801,37.801 0 0 1 13.06,-2.328 37.801,37.801 0 0 1 37.801,37.801 37.801,37.801 0 0 1 -13.197,28.698 37.801,37.801 0 0 0 24.741,-35.474 37.801,37.801 0 0 0 -37.801,-37.801 z"
       id="path1" /><path
       fill="#c85a2a"
       d="M 97.815,18.236 86.189,21.351 125.6,168.436 h 12.461 z"
       id="path2" /></g></svg>
